<svg width="129" height="129" viewBox="0 0 129 129" fill="none" xmlns="http://www.w3.org/2000/svg">
<path d="M64.5 0C28.9347 0 0 28.9347 0 64.5C0 100.065 28.9347 129 64.5 129C100.065 129 129 100.065 129 64.5C129 28.9347 100.066 0 64.5 0ZM64.5 117.273C35.4011 117.273 11.7273 93.5993 11.7273 64.5C11.7273 35.4007 35.4011 11.7273 64.5 11.7273C93.5989 11.7273 117.273 35.4011 117.273 64.5C117.273 93.5989 93.5989 117.273 64.5 117.273Z" fill="white"/>
<path d="M64.4998 70.2939C64.4994 70.2939 64.5002 70.2939 64.4998 70.2939C55.4158 70.2939 46.8749 73.8317 40.4518 80.2551C38.1619 82.5447 38.1619 86.2575 40.4518 88.5475C41.5968 89.6924 43.0975 90.2651 44.5982 90.2651C46.0989 90.2651 47.5996 89.6924 48.7442 88.5475C52.9527 84.3389 58.5482 82.0216 64.4998 82.0216C70.4514 82.0216 76.0468 84.3393 80.2554 88.5475C82.5449 90.837 86.2578 90.837 88.5477 88.5475C90.8377 86.2579 90.8377 82.545 88.5477 80.2551C82.1243 73.8317 73.5841 70.2939 64.4998 70.2939Z" fill="white"/>
<path d="M45.0092 57.5185C46.4673 56.0643 47.2999 54.0472 47.2999 51.991C47.2999 49.9349 46.4673 47.9178 45.0092 46.4632C43.555 45.0094 41.5379 44.1729 39.4818 44.1729C37.4217 44.1729 35.4085 45.0094 33.9543 46.4632C32.5001 47.9178 31.6636 49.9349 31.6636 51.991C31.6636 54.0472 32.5001 56.0643 33.9543 57.5185C35.4085 58.9727 37.4256 59.8092 39.4818 59.8092C41.5379 59.8092 43.555 58.9727 45.0092 57.5185Z" fill="white"/>
<path d="M89.5181 44.1729C87.458 44.1729 85.4449 45.0094 83.9907 46.4632C82.5326 47.9178 81.7 49.9349 81.7 51.991C81.7 54.0472 82.5326 56.0643 83.9907 57.5185C85.4449 58.9727 87.462 59.8092 89.5181 59.8092C91.5743 59.8092 93.5914 58.9723 95.0456 57.5185C96.5037 56.0643 97.3363 54.0472 97.3363 51.991C97.3363 49.9349 96.5037 47.9178 95.0456 46.4632C93.5914 45.0094 91.5743 44.1729 89.5181 44.1729Z" fill="white"/>
</svg>
