<svg width="117" height="117" viewBox="0 0 117 117" fill="none" xmlns="http://www.w3.org/2000/svg">
<g clip-path="url(#clip0)">
<path d="M107.066 70.057C106.12 67.7173 103.456 66.5864 101.116 67.5329C98.7761 68.4789 97.6459 71.1427 98.5919 73.4829L103.975 86.7976L87.9881 79.7504C86.8309 79.2404 85.514 79.2324 84.3508 79.7287C78.8875 82.0598 73.0348 83.2417 66.9554 83.2417C42.4875 83.2417 26.0511 64.0841 26.0511 46.1911C26.0511 25.7614 44.4007 9.14061 66.9554 9.14061C89.51 9.14061 107.86 25.7614 107.86 46.1911C107.86 47.785 107.711 49.6936 107.453 51.4271C107.08 53.9236 108.802 56.2492 111.298 56.6217C113.795 56.9951 116.121 55.2723 116.493 52.7758C116.82 50.5844 117 48.2457 117 46.1911C117 33.7759 111.743 22.1267 102.196 13.3894C92.7627 4.75517 80.2472 0 66.9554 0C53.6635 0 41.1482 4.75517 31.7144 13.3892C23.1835 21.1971 18.0812 31.3313 17.0915 42.2586C6.36112 49.3645 0.000396517 60.7512 0.000396517 73.0163C0.000396517 80.678 2.4142 87.9475 7.00896 94.2036L0.333572 110.717C-0.363628 112.441 0.0538691 114.416 1.38954 115.711C2.25995 116.555 3.40687 117 4.57161 117C5.19386 117 5.82136 116.873 6.41413 116.612L25.6617 108.127C30.5035 109.929 35.6216 110.842 40.9044 110.842C41.0186 110.842 41.1308 110.833 41.243 110.824C48.8839 110.767 56.3122 108.757 62.7459 104.996C68.5086 101.626 73.2489 96.9981 76.5722 91.5322C79.8169 90.9495 82.9882 90.0693 86.0663 88.8926L110.586 99.7014C111.179 99.9626 111.806 100.09 112.429 100.09C113.593 100.09 114.741 99.6445 115.611 98.8006C116.947 97.5058 117.364 95.531 116.667 93.8064L107.066 70.057ZM40.9048 101.689C40.8425 101.689 40.7817 101.696 40.7197 101.699C36.053 101.675 31.5613 100.758 27.3665 98.9679C26.2035 98.4713 24.8866 98.4793 23.7294 98.9896L13.0264 103.708L16.4791 95.1667C17.1173 93.5879 16.8246 91.785 15.72 90.489C11.4159 85.4395 9.141 79.3978 9.141 73.0163C9.141 65.7127 12.2134 58.7926 17.589 53.5455C19.2626 62.6689 23.9849 71.3964 31.1084 78.2523C39.9727 86.7834 51.6978 91.7258 64.3587 92.3208C58.4146 98.172 49.9083 101.689 40.9048 101.689Z" fill="white"/>
<path d="M66.7266 50.959C69.2507 50.959 71.2969 48.9128 71.2969 46.3887C71.2969 43.8646 69.2507 41.8184 66.7266 41.8184C64.2024 41.8184 62.1562 43.8646 62.1562 46.3887C62.1562 48.9128 64.2024 50.959 66.7266 50.959Z" fill="white"/>
<path d="M85.0078 50.959C87.5319 50.959 89.5781 48.9128 89.5781 46.3887C89.5781 43.8646 87.5319 41.8184 85.0078 41.8184C82.4837 41.8184 80.4375 43.8646 80.4375 46.3887C80.4375 48.9128 82.4837 50.959 85.0078 50.959Z" fill="white"/>
<path d="M48.4453 50.959C50.9694 50.959 53.0156 48.9128 53.0156 46.3887C53.0156 43.8646 50.9694 41.8184 48.4453 41.8184C45.9212 41.8184 43.875 43.8646 43.875 46.3887C43.875 48.9128 45.9212 50.959 48.4453 50.959Z" fill="white"/>
</g>
<defs>
<clipPath id="clip0">
<rect width="117" height="117" fill="white"/>
</clipPath>
</defs>
</svg>
