<svg width="19" height="19" viewBox="0 0 19 19" xmlns="http://www.w3.org/2000/svg">
<g clip-path="url(#clip0)">
<path d="M10.5492 9.50174L18.7821 1.26874C19.072 0.978881 19.072 0.508928 18.7821 0.219105C18.4923 -0.0707191 18.0223 -0.0707562 17.7325 0.219105L9.4995 8.4521L1.26654 0.219105C0.976683 -0.0707562 0.506731 -0.0707562 0.216907 0.219105C-0.0729164 0.508965 -0.0729535 0.978918 0.216907 1.26874L8.44987 9.5017L0.216907 17.7347C-0.0729535 18.0246 -0.0729535 18.4945 0.216907 18.7843C0.361819 18.9292 0.551782 19.0017 0.741744 19.0017C0.931707 19.0017 1.12163 18.9292 1.26658 18.7843L9.4995 10.5514L17.7325 18.7843C17.8774 18.9292 18.0673 19.0017 18.2573 19.0017C18.4473 19.0017 18.6372 18.9292 18.7821 18.7843C19.072 18.4945 19.072 18.0245 18.7821 17.7347L10.5492 9.50174Z"/>
</g>
<defs>
<clipPath id="clip0">
<rect width="19" height="19"/>
</clipPath>
</defs>
</svg>
