<svg width="27" height="27" viewBox="0 0 27 27" fill="none" xmlns="http://www.w3.org/2000/svg">
<path d="M26.9612 10.4023C26.8682 10.1159 26.6207 9.90713 26.3228 9.86389L17.9527 8.64758L14.2093 1.06298C14.0761 0.792982 13.8011 0.62207 13.5 0.62207C13.1989 0.62207 12.924 0.792982 12.7907 1.06298L9.04722 8.64758L0.677258 9.86389C0.379363 9.90713 0.131776 10.1159 0.0387526 10.4022C-0.0543231 10.6886 0.0233015 11.0029 0.238931 11.2131L6.29534 17.1169L4.86583 25.4533C4.81489 25.7501 4.93691 26.0499 5.18049 26.2269C5.31829 26.327 5.4815 26.378 5.6455 26.378C5.77143 26.378 5.89778 26.348 6.01348 26.2871L13.5 22.3511L20.9862 26.2871C21.2528 26.4272 21.5756 26.4039 21.8192 26.2269C22.0628 26.0499 22.1849 25.75 22.134 25.4532L20.704 17.1169L26.7611 11.213C26.9767 11.0029 27.0544 10.6886 26.9612 10.4023Z" fill="white"/>
</svg>
