<svg width="26" height="26" viewBox="0 0 26 26" fill="none" xmlns="http://www.w3.org/2000/svg">
<g clip-path="url(#clip0)">
<path d="M16.92 5.84162C15.4522 2.84453 12.3817 0.863037 8.93768 0.863037C4.00963 0.863037 0.000391333 4.84953 0.000391333 9.74955C0.000391333 11.0812 0.286283 12.3576 0.850551 13.5476L0.0151683 17.725C-0.0911651 18.2568 0.377941 18.7268 0.909812 18.6216L5.13873 17.7855C5.70812 18.0556 6.29717 18.261 6.90242 18.4025C5.54573 11.9768 10.4163 5.94511 16.92 5.84162Z" fill="white"/>
<path d="M25.1497 20.0475C25.2956 19.7397 25.4225 19.4261 25.5311 19.1074H25.5032C27.4048 13.5258 23.4057 7.65946 17.5019 7.37382C17.5018 7.37351 17.5018 7.37321 17.5017 7.3729C12.4218 7.13881 8.20142 11.2061 8.20142 16.2495C8.20142 21.1454 12.1806 25.1287 17.0749 25.1358C18.4024 25.1341 19.6749 24.8483 20.8614 24.2854C25.4929 25.2011 25.1317 25.136 25.2381 25.136C25.7195 25.136 26.079 24.6949 25.985 24.2249L25.1497 20.0475Z" fill="white"/>
</g>
<defs>
<clipPath id="clip0">
<rect width="26" height="26" fill="white"/>
</clipPath>
</defs>
</svg>
