<svg width="31" height="31" viewBox="0 0 31 31" fill="none" xmlns="http://www.w3.org/2000/svg">
<g clip-path="url(#clip0)">
<path d="M15.5 4.46529C14.9652 4.46529 14.5312 4.03129 14.5312 3.49654V0.96875C14.5312 0.434 14.9652 0 15.5 0C16.0347 0 16.4688 0.434 16.4688 0.96875V3.49654C16.4688 4.03129 16.0347 4.46529 15.5 4.46529Z" fill="white"/>
<path d="M23.9875 7.98126C23.7395 7.98126 23.4915 7.88697 23.3029 7.6971C22.9244 7.31864 22.9244 6.7051 23.3029 6.32664L25.0906 4.53897C25.469 4.16051 26.0826 4.16051 26.461 4.53897C26.8395 4.91743 26.8395 5.53097 26.461 5.90943L24.6733 7.6971C24.4835 7.88568 24.2355 7.98126 23.9875 7.98126Z" fill="white"/>
<path d="M30.0312 16.4688H27.5034C26.9687 16.4688 26.5347 16.0347 26.5347 15.5C26.5347 14.9652 26.9687 14.5312 27.5034 14.5312H30.0312C30.566 14.5312 31 14.9652 31 15.5C31 16.0347 30.566 16.4688 30.0312 16.4688Z" fill="white"/>
<path d="M25.7751 26.744C25.5271 26.744 25.2791 26.6497 25.0906 26.4598L23.3029 24.6721C22.9244 24.2937 22.9244 23.6801 23.3029 23.3017C23.6813 22.9232 24.2949 22.9232 24.6733 23.3017L26.461 25.0893C26.8395 25.4678 26.8395 26.0813 26.461 26.4598C26.2711 26.6497 26.0231 26.744 25.7751 26.744Z" fill="white"/>
<path d="M5.22477 26.744C4.97677 26.744 4.72877 26.6497 4.54019 26.4598C4.16173 26.0813 4.16173 25.4678 4.54019 25.0893L6.32786 23.3017C6.70632 22.9232 7.31986 22.9232 7.69832 23.3017C8.07677 23.6801 8.07677 24.2937 7.69832 24.6721L5.91065 26.4598C5.72077 26.6497 5.47277 26.744 5.22477 26.744Z" fill="white"/>
<path d="M3.49654 16.4688H0.96875C0.434 16.4688 0 16.0347 0 15.5C0 14.9652 0.434 14.5312 0.96875 14.5312H3.49654C4.03129 14.5312 4.46529 14.9652 4.46529 15.5C4.46529 16.0347 4.03129 16.4688 3.49654 16.4688Z" fill="white"/>
<path d="M7.01244 7.98126C6.76444 7.98126 6.51644 7.88697 6.32786 7.6971L4.54019 5.90943C4.16173 5.53097 4.16173 4.91743 4.54019 4.53897C4.91865 4.16051 5.53219 4.16051 5.91065 4.53897L7.69832 6.32664C8.07677 6.7051 8.07677 7.31864 7.69832 7.6971C7.50715 7.88568 7.26044 7.98126 7.01244 7.98126Z" fill="white"/>
<path d="M19.375 27.125V28.7396C19.375 29.9796 18.3546 31 17.1146 31H13.8854C12.8004 31 11.625 30.1733 11.625 28.365V27.125H19.375Z" fill="white"/>
<path d="M21.1961 8.47343C19.0778 6.75552 16.2878 6.08385 13.5624 6.6651C10.1395 7.37552 7.36237 10.1655 6.65195 13.5884C5.92862 17.1018 7.24612 20.5893 10.062 22.7205C10.824 23.2888 11.3536 24.1672 11.5345 25.1876V25.2005C11.5603 25.1876 11.599 25.1876 11.6249 25.1876H19.3749C19.4007 25.1876 19.4136 25.1876 19.4395 25.2005V25.1876C19.6203 24.2059 20.2015 23.3018 21.0928 22.6043C23.2757 20.8734 24.5415 18.2901 24.5415 15.5001C24.5415 12.7618 23.3274 10.2043 21.1961 8.47343ZM20.3436 16.1459C19.814 16.1459 19.3749 15.7068 19.3749 15.1772C19.3749 13.2138 17.7861 11.6251 15.8228 11.6251C15.2932 11.6251 14.854 11.1859 14.854 10.6564C14.854 10.1268 15.2932 9.6876 15.8228 9.6876C18.8453 9.6876 21.3124 12.1547 21.3124 15.1772C21.3124 15.7068 20.8732 16.1459 20.3436 16.1459Z" fill="white"/>
<path d="M11.5344 25.1875H11.6248C11.599 25.1875 11.5603 25.1875 11.5344 25.2004V25.1875Z" fill="white"/>
<path d="M19.4396 25.1875V25.2004C19.4138 25.1875 19.4008 25.1875 19.375 25.1875H19.4396Z" fill="white"/>
</g>
<defs>
<clipPath id="clip0">
<rect width="31" height="31" fill="white"/>
</clipPath>
</defs>
</svg>
