<svg width="22" height="28" viewBox="0 0 22 28" fill="none" xmlns="http://www.w3.org/2000/svg">
<path d="M20.1875 0H4.54688C2.55663 0 0.9375 1.61913 0.9375 3.60938V24.0625C0.9375 26.2336 2.70385 28 4.875 28H20.1875C20.6708 28 21.0625 27.6082 21.0625 27.125C21.0625 26.6418 20.6708 26.25 20.1875 26.25H4.875C3.66881 26.25 2.6875 25.2687 2.6875 24.0625C2.6875 22.8563 3.66881 21.875 4.875 21.875H20.1875C20.6708 21.875 21.0625 21.4832 21.0625 21V0.875C21.0625 0.391781 20.6708 0 20.1875 0ZM2.6875 20.3126V3.60938C2.6875 2.58245 3.51995 1.75 4.54688 1.75H4.60156C4.75255 1.75 4.875 1.87245 4.875 2.02344V19.8605C4.875 20.0035 4.76491 20.1239 4.62223 20.133C4.07071 20.1682 3.54976 20.3175 3.08267 20.5574C2.90204 20.6502 2.6875 20.5156 2.6875 20.3126Z" fill="white"/>
</svg>
