<svg width="30" height="30" viewBox="0 0 30 30" fill="none" xmlns="http://www.w3.org/2000/svg">
<path d="M7.24998 7.62502C6.24996 6.625 1.99998 6.37504 0.624961 6.25C0.499981 6.25 0.374941 6.25 0.249961 6.37498C0.12498 6.50002 0 6.75004 0 6.87502V18.125C0 18.5 0.25002 18.75 0.62502 18.75H4.37502C4.62504 18.75 4.875 18.6251 5.00004 18.375C5.00004 18 7.25004 11.375 7.50006 8.12506C7.5 8.00002 7.5 7.75006 7.24998 7.62502Z" fill="white"/>
<path d="M20.6251 10.625C19.3751 10.25 18.2501 9.75 17.2501 9.375C15.0001 8.37498 14.0001 8.87502 12.0001 10.875C11.1251 11.75 10.5001 13 10.6251 13.5C10.6251 13.625 10.6251 13.625 10.8751 13.75C11.5001 14 12.3751 14.125 13.2501 12.75C13.375 12.625 13.5001 12.5 13.75 12.5C14.125 12.5 14.25 12.375 14.625 12.25C14.875 12.125 15.125 11.9999 15.5 11.875C15.625 11.875 15.625 11.875 15.75 11.875C15.875 11.875 16.125 11.9999 16.25 11.9999C16.8751 12.625 18.0001 13.5 19.1251 14.5C20.8751 15.875 22.6251 17.375 23.5001 18.5H23.6251C22.7501 16 21.2501 11.75 20.6251 10.625Z" fill="white"/>
<path d="M29.375 7.5C24.5 7.5 21.75 8.74998 21.625 8.74998C21.5 8.87496 21.375 9 21.25 9.12498C21.25 9.24996 21.25 9.49998 21.375 9.62496C22.125 10.8749 24.625 17.75 25 19.4999C25.125 19.75 25.375 19.9999 25.625 19.9999H29.375C29.75 19.9999 30 19.7499 30 19.3749V8.1249C30 7.75002 29.75 7.5 29.375 7.5Z" fill="white"/>
<path d="M22.6249 19.75C22.125 18.625 19.9999 17 18.1249 15.5C17.125 14.625 16.125 13.875 15.375 13.25C15.25 13.3749 15 13.3749 15 13.5C14.625 13.625 14.5 13.75 13.9999 13.75C13 15 11.7499 15.5 10.375 15C9.74996 14.875 9.37496 14.375 9.24998 13.875C8.99996 12.625 10.125 10.875 11 10H8.49998C8 12.5 7.12496 15.75 6.5 17.5C6.99998 18 7.50002 18.625 7.87502 18.875C10.25 20.875 13 22.875 13.5 23.25C13.875 23.5001 14.625 23.75 15 23.75C15.125 23.75 15.25 23.75 15.375 23.75L13.375 21.75C13.125 21.5 13.125 21.125 13.375 20.875C13.625 20.625 14 20.625 14.25 20.875L16.75 23.375C17 23.625 17.25 23.5 17.5 23.5C17.875 23.375 18 23.125 18.125 22.75L15.25 19.875C15 19.625 15 19.25 15.25 19C15.5 18.75 15.875 18.75 16.125 19L19.2499 22.125C19.3749 22.25 19.875 22.25 20.25 22.125C20.3749 22 20.625 21.875 20.7499 21.625L17.25 18.125C16.9999 17.8749 16.9999 17.4999 17.25 17.25C17.5 17 17.875 17 18.1249 17.25L21.75 20.875C22 21 22.2499 20.875 22.5 20.75C22.6249 20.625 22.875 20.25 22.6249 19.75Z" fill="white"/>
</svg>
