<svg width="31" height="31" viewBox="0 0 31 31" fill="none" xmlns="http://www.w3.org/2000/svg">
<g clip-path="url(#clip0)">
<path d="M15.4999 9.59424C12.2429 9.59424 9.59326 12.2439 9.59326 15.5006C9.59326 18.7576 12.2429 21.4073 15.4999 21.4073C18.7567 21.4073 21.4063 18.7576 21.4063 15.5006C21.4063 12.2439 18.7567 9.59424 15.4999 9.59424ZM19.0066 14.3883L14.7752 18.6197C14.5976 18.7974 14.3646 18.8863 14.1319 18.8863C13.8992 18.8863 13.6665 18.7976 13.4888 18.6197L11.8718 17.0027C11.5166 16.6477 11.5166 16.0718 11.8718 15.7166C12.2268 15.3613 12.8027 15.3613 13.158 15.7166L14.1319 16.6905L17.7205 13.1022C18.0755 12.7469 18.6514 12.7469 19.0066 13.1022C19.3619 13.4572 19.3619 14.0331 19.0066 14.3883Z" fill="white"/>
<path d="M28.6681 8.41108L28.6672 8.38696C28.6537 8.08919 28.6447 7.77416 28.6393 7.42365C28.614 5.71439 27.2552 4.30053 25.5457 4.20498C21.9815 4.00607 19.2243 2.84386 16.8684 0.547581L16.8483 0.528424C16.0799 -0.176141 14.9207 -0.176141 14.1521 0.528424L14.132 0.547581C11.7761 2.84386 9.01885 4.00607 5.45464 4.20522C3.74538 4.30053 2.38639 5.71439 2.36108 7.42389C2.35588 7.77203 2.34665 8.08706 2.33317 8.38696L2.33175 8.44301C2.26246 12.0775 2.17637 16.6007 3.68956 20.7063C4.5216 22.9641 5.78173 24.9266 7.4347 26.5399C9.31733 28.3771 11.7832 29.8356 14.7637 30.8749C14.8607 30.9087 14.9614 30.9361 15.0641 30.9567C15.2088 30.9855 15.3545 31 15.5002 31C15.6459 31 15.7918 30.9855 15.9363 30.9567C16.039 30.9361 16.1404 30.9084 16.2379 30.8744C19.2148 29.8333 21.6781 28.374 23.559 26.537C25.2113 24.9233 26.4714 22.9603 27.3042 20.7021C28.8231 16.5842 28.7372 12.0524 28.6681 8.41108ZM15.4997 23.2261C11.2397 23.2261 7.7741 19.7605 7.7741 15.5005C7.7741 11.2405 11.2397 7.77487 15.4997 7.77487C19.7595 7.77487 23.2253 11.2405 23.2253 15.5005C23.2253 19.7605 19.7595 23.2261 15.4997 23.2261Z" fill="white"/>
</g>
<defs>
<clipPath id="clip0">
<rect width="31" height="31" fill="white"/>
</clipPath>
</defs>
</svg>
