<svg width="26" height="26" viewBox="0 0 26 26" fill="none" xmlns="http://www.w3.org/2000/svg">
<g clip-path="url(#clip0)">
<path d="M8.37143 11.0236C8.60829 12.5632 9.79801 14.5228 11.7522 15.2118C12.5543 15.4918 13.4317 15.4971 14.2339 15.2064C16.1557 14.512 17.3831 12.5579 17.6253 11.0236C17.8837 11.0021 18.2229 10.6414 18.589 9.34402C19.0896 7.57291 18.5567 7.30912 18.1045 7.35219C18.1906 7.10994 18.2552 6.86231 18.2983 6.62544C19.0627 2.03348 16.8017 1.87736 16.8017 1.87736C16.8017 1.87736 16.4249 1.156 15.4397 0.612284C14.7776 0.219303 13.857 -0.0821628 12.6458 0.0201201C12.2528 0.03627 11.8813 0.11702 11.5314 0.230069C11.0846 0.380802 10.6755 0.601518 10.304 0.859917C9.85184 1.14523 9.42118 1.50053 9.04434 1.90428C8.4468 2.51798 7.91385 3.30932 7.68236 4.29447C7.48857 5.03198 7.53163 5.8018 7.69313 6.63083C7.7362 6.87308 7.8008 7.11533 7.88693 7.35757C7.43473 7.31451 6.90178 7.57829 7.40243 9.3494C7.77388 10.6414 8.11303 11.0021 8.37143 11.0236Z" fill="white"/>
<path d="M21.8781 17.0474C19.1272 16.3476 16.8931 14.7756 16.8931 14.7756L15.1489 20.2935L14.8206 21.3325L14.8152 21.3164L14.5299 22.1992L13.6093 19.5883C15.8703 16.4337 13.1517 16.466 13.001 16.4714C12.8503 16.466 10.1317 16.4337 12.3927 19.5883L11.4721 22.1992L11.1868 21.3164L11.1814 21.3325L10.8531 20.2935L9.10347 14.7756C9.10347 14.7756 6.8694 16.3476 4.11853 17.0474C2.06748 17.5696 1.97059 19.9382 2.05133 21.1064C2.05133 21.1064 2.16977 22.6945 2.2882 23.3943C2.2882 23.3943 6.29339 25.9945 13.001 25.9998C19.7086 25.9998 23.7138 23.3943 23.7138 23.3943C23.8322 22.6945 23.9507 21.1064 23.9507 21.1064C24.026 19.9382 23.9291 17.5696 21.8781 17.0474Z" fill="white"/>
</g>
<defs>
<clipPath id="clip0">
<rect width="26" height="26" fill="white"/>
</clipPath>
</defs>
</svg>
