<svg width="22" height="22" viewBox="0 0 22 22" fill="none" xmlns="http://www.w3.org/2000/svg">
<path d="M20.1368 4.87957L19.8076 4.98391L18.0548 5.14007L17.5597 5.93069L17.2005 5.81654L15.8055 4.55884L15.6032 3.90478L15.3321 3.2073L14.4554 2.42089L13.4211 2.21851L13.3973 2.6919L14.4106 3.68069L14.9064 4.26472L14.3489 4.55604L13.8952 4.42229L13.2152 4.13867L13.2383 3.59035L12.3461 3.22341L12.0499 4.51262L11.1508 4.7164L11.2397 5.43559L12.4113 5.66108L12.6137 4.51192L13.5807 4.65478L14.0303 4.91809H14.7516L15.2453 5.90688L16.5541 7.23461L16.4582 7.75072L15.4029 7.61626L13.5793 8.53713L12.2663 10.1121L12.0954 10.8095H11.6242L10.746 10.4048L9.89307 10.8095L10.1053 11.7094L10.4764 11.2815L11.1291 11.2612L11.0835 12.0693L11.6242 12.2276L12.1641 12.8341L13.0457 12.5862L14.0527 12.7451L15.2222 13.0595L15.8062 13.1282L16.7964 14.2521L18.7075 15.3761L17.4715 17.7374L16.1669 18.3439L15.6718 19.6933L13.7838 20.9538L13.5828 21.6807C18.4092 20.5182 21.9995 16.1828 21.9995 10.9993C21.9981 8.73531 21.3118 6.62817 20.1368 4.87957Z" fill="white"/>
<path d="M12.2655 16.7485L11.4644 15.2632L12.1997 13.731L11.4644 13.5111L10.6388 12.682L8.80965 12.2716L8.20251 11.0013V11.7555H7.935L6.35867 9.61825V7.86265L5.20321 5.9838L3.36848 6.31083H2.13248L1.51063 5.90327L2.30405 5.27441L1.51273 5.45719C0.558952 7.08604 0.00292969 8.97609 0.00292969 11.0006C0.00292969 17.0741 4.9266 21.9999 11.0008 21.9999C11.4686 21.9999 11.9273 21.9586 12.3811 21.904L12.2662 20.5713C12.2662 20.5713 12.7711 18.5923 12.7711 18.5251C12.7704 18.4572 12.2655 16.7485 12.2655 16.7485Z" fill="white"/>
<path d="M4.08974 3.54692L6.04352 3.27451L6.94408 2.78081L7.95739 3.07283L9.57643 2.98319L10.1311 2.11134L10.9399 2.2444L12.9042 2.06022L13.4455 1.46359L14.2088 0.953781L15.2886 1.11625L15.6822 1.05672C14.2599 0.387255 12.6773 0 11.0001 0C7.58624 0 4.53372 1.55602 2.51831 3.9993H2.52391L4.08974 3.54692ZM11.4651 1.09384L12.5883 0.47549L13.3096 0.892157L12.2655 1.68697L11.2683 1.78711L10.8194 1.4958L11.4651 1.09384ZM8.13806 1.18417L8.63386 1.39076L9.28302 1.18417L9.63666 1.79692L8.13806 2.19048L7.41747 1.76891C7.41677 1.76891 8.12195 1.31513 8.13806 1.18417Z" fill="white"/>
</svg>
