<svg width="33" height="17" viewBox="0 0 33 17" fill="none" xmlns="http://www.w3.org/2000/svg">
<path d="M25.4569 0.486084C20.7752 0.486084 17.6769 4.31389 14.9435 7.69181C12.6082 10.5774 10.4029 13.3023 7.71691 13.3023C4.92508 13.3023 3.21097 10.4329 3.21097 8.37587C3.21097 6.46867 5.09137 3.69705 8.03851 3.69705C10.8982 3.69705 12.388 5.98583 12.4632 6.10313C12.9265 6.85288 13.9102 7.08881 14.6636 6.62925C15.4209 6.16794 15.6607 5.18007 15.1992 4.42285C15.1012 4.26249 12.7461 0.486304 8.03851 0.486304C3.30147 0.486304 0 4.64472 0 8.37609C0 12.225 3.16923 16.5135 7.71669 16.5135C11.9342 16.5135 14.7331 13.0558 17.4392 9.71171C19.9426 6.61915 22.3074 3.69727 25.4569 3.69727C27.3307 3.69727 28.5619 4.333 29.2201 5.63918C29.7904 6.7727 29.7899 8.05537 29.7895 8.49977C29.7895 8.75459 29.6548 10.0327 29.0314 11.1835C28.3205 12.4945 27.3113 13.1048 25.8529 13.1048C22.9161 13.1048 21.3294 11.1958 20.7319 10.4768C20.5766 10.2897 20.4648 10.155 20.3154 10.0272C19.6428 9.45096 18.6287 9.52828 18.0514 10.2018C17.4948 10.8514 17.5484 11.8171 18.1564 12.4016C18.1854 12.4346 18.2204 12.4778 18.2619 12.5281C19.0406 13.4653 21.4085 16.3153 25.8523 16.3153C31.2532 16.3153 32.9998 11.0491 32.9998 8.4778C33.0002 6.84014 32.6936 5.39952 32.0873 4.19505C31.236 2.50356 29.3943 0.486084 25.4569 0.486084Z" fill="white"/>
</svg>
