<svg width="22" height="22" viewBox="0 0 22 22" xmlns="http://www.w3.org/2000/svg">
<g clip-path="url(#clip0)">
<path d="M21.9301 9.73306C21.8833 9.62122 21.8164 9.51947 21.7312 9.43422L18.9821 6.68512C18.6237 6.32762 18.0443 6.32762 17.6859 6.68512C17.3275 7.04352 17.3275 7.62377 17.6859 7.98127L18.8712 9.16652H13.7506C13.2437 9.16652 12.834 9.57717 12.834 10.0832C12.834 10.5892 13.2437 10.9998 13.7506 10.9998H18.8711L17.6859 12.1851C17.3275 12.5435 17.3275 13.1237 17.6859 13.4812C17.8646 13.6609 18.0993 13.7498 18.334 13.7498C18.5687 13.7498 18.8033 13.6609 18.9821 13.4812L21.7312 10.7321C21.8164 10.6478 21.8833 10.546 21.9301 10.4333C22.0226 10.2097 22.0226 9.95672 21.9301 9.73306Z"/>
<path d="M15.5845 12.8333C15.0776 12.8333 14.6679 13.244 14.6679 13.75V18.3333H11.0012V3.66665C11.0012 3.2624 10.7354 2.9049 10.3476 2.7885L7.16403 1.83335H14.6679V6.4167C14.6679 6.9227 15.0776 7.33335 15.5845 7.33335C16.0914 7.33335 16.5012 6.9227 16.5012 6.4167V0.916695C16.5012 0.410652 16.0914 0 15.5845 0H0.917873C0.884873 0 0.855526 0.01375 0.823471 0.0174023C0.780373 0.022 0.740971 0.0293047 0.699721 0.0394023C0.603471 0.0641523 0.516373 0.10175 0.434819 0.153055C0.414666 0.165902 0.389916 0.166805 0.370666 0.181457C0.363276 0.187 0.360526 0.197098 0.353178 0.202598C0.253275 0.281402 0.169873 0.377652 0.109373 0.49225C0.0965254 0.517 0.0937754 0.543598 0.0837207 0.56925C0.0543731 0.638902 0.0223184 0.70675 0.0113184 0.78375C0.0067207 0.81125 0.0149707 0.836902 0.0140684 0.8635C0.013166 0.881848 0.0012207 0.898348 0.0012207 0.916652V19.25C0.0012207 19.6873 0.310123 20.0631 0.738221 20.1483L9.90488 21.9817C9.96447 21.9945 10.025 22 10.0845 22C10.2944 22 10.5007 21.9276 10.6657 21.7919C10.8774 21.6178 11.0012 21.3583 11.0012 21.0833V20.1667H15.5845C16.0914 20.1667 16.5012 19.756 16.5012 19.25V13.75C16.5012 13.244 16.0914 12.8333 15.5845 12.8333Z"/>
</g>
<defs>
<clipPath id="clip0">
<rect width="22" height="22" fill="white"/>
</clipPath>
</defs>
</svg>
