<svg width="98" height="75" viewBox="0 0 98 75" fill="none" xmlns="http://www.w3.org/2000/svg">
<path fill-rule="evenodd" clip-rule="evenodd" d="M32.1343 0C26.1602 0 21.3172 4.85973 21.3172 10.8545V46.6744C21.3172 52.6692 26.1602 57.5289 32.1343 57.5289H67.8306C73.8046 57.5289 78.6476 52.6692 78.6476 46.6744V10.8545C78.6476 4.85973 73.8046 0 67.8306 0H32.1343ZM64.5854 14.1109H35.3794V43.418H64.5854V14.1109Z" fill="white"/>
<path d="M45.1147 23.8799H54.8501V33.649H45.1147V23.8799Z" fill="white"/>
<path d="M0.0316906 68.1757H9.3107C9.33182 68.1799 9.34239 68.1905 9.34239 68.2075V69.7657C9.34239 69.7869 9.33182 69.7975 9.3107 69.7975H5.76769V74.9682C5.76769 74.9894 5.75712 75 5.736 75H3.61907C3.59794 75 3.58738 74.9894 3.58738 74.9682V69.7975H0.0316906C0.0105635 69.7975 0 69.7869 0 69.7657V68.2075C0.00422541 68.1862 0.0147889 68.1757 0.0316906 68.1757Z" fill="white"/>
<path d="M10.0079 68.1757H17.17C17.8207 68.1757 18.389 68.4258 18.8749 68.9261C19.1707 69.2696 19.3186 69.6406 19.3186 70.0391V71.273C19.3186 71.9132 18.9679 72.4433 18.2665 72.863L17.9939 72.9839L19.3186 74.9873L19.2869 75H16.7136C16.6502 74.9279 16.2298 74.3025 15.4523 73.1238H12.1502V74.9682C12.1502 74.9894 12.1396 75 12.1185 75H10.0079C9.98676 75 9.9762 74.9894 9.9762 74.9682V68.2075C9.98042 68.1862 9.99099 68.1757 10.0079 68.1757ZM12.1502 69.7975V71.502H16.2763C16.7157 71.502 16.9946 71.309 17.1129 70.9232C17.1298 70.8342 17.1383 70.7472 17.1383 70.6624C17.1383 70.2512 16.9671 69.9777 16.6249 69.842C16.5193 69.8123 16.4115 69.7975 16.3016 69.7975H12.1502Z" fill="white"/>
<path d="M23.9518 68.1757H26.1131C26.1553 68.2138 26.6011 68.9579 27.4504 70.408C29.1659 73.3294 30.0596 74.8558 30.1314 74.9873V75H27.6342C27.5877 74.9576 27.3131 74.4997 26.8102 73.6262H23.2672C22.7898 74.4615 22.5215 74.9194 22.4623 75H19.9524V74.9682C22.5215 70.5882 23.8546 68.3241 23.9518 68.1757ZM25.0356 70.637L24.2243 72.0108H25.8532C25.3377 71.1246 25.0651 70.6667 25.0356 70.637Z" fill="white"/>
<path d="M30.7969 68.1757H37.959C38.6055 68.1757 39.1738 68.4258 39.664 68.9261C39.9597 69.2696 40.1076 69.6406 40.1076 70.0391V73.1683C40.1076 73.7492 39.7928 74.2474 39.1632 74.6629C38.7534 74.8876 38.3625 75 37.9907 75H30.7969C30.7758 75 30.7652 74.9894 30.7652 74.9682V68.2075C30.7695 68.1862 30.78 68.1757 30.7969 68.1757ZM32.9392 69.7975V73.3845H36.8372C37.3273 73.3845 37.6759 73.1238 37.8829 72.6023C37.9125 72.4963 37.9273 72.3903 37.9273 72.2843V70.9105C37.9273 70.4102 37.6801 70.0582 37.1857 69.8547C37.0801 69.8166 36.9576 69.7975 36.8181 69.7975H32.9392Z" fill="white"/>
<path d="M40.7731 68.1757H50.0521C50.0733 68.1799 50.0838 68.1905 50.0838 68.2075V69.7657C50.0838 69.7869 50.0733 69.7975 50.0521 69.7975H42.9154V70.8469H48.1951C48.2162 70.8511 48.2267 70.8617 48.2267 70.8787V72.297C48.2267 72.3182 48.2162 72.3288 48.1951 72.3288H42.9154V73.3845H50.0521C50.0733 73.3845 50.0838 73.393 50.0838 73.41V74.9682C50.0838 74.9894 50.0733 75 50.0521 75H40.7731C40.752 75 40.7414 74.9894 40.7414 74.9682V68.2075C40.7457 68.1862 40.7562 68.1757 40.7731 68.1757Z" fill="white"/>
<path d="M57.0557 68.1757H59.553C59.629 68.2605 59.9079 68.729 60.3896 69.5812C60.4276 69.6279 61.0107 70.6158 62.1389 72.545H62.1516C63.8375 69.6703 64.6953 68.2138 64.7249 68.1757H67.2348C67.2348 68.218 66.5946 69.312 65.3143 71.4574C64.3171 73.1704 63.622 74.3513 63.2291 75H61.0551C60.9495 74.8474 59.6375 72.6129 57.1191 68.2965C57.1022 68.2965 57.0811 68.2562 57.0557 68.1757Z" fill="white"/>
<path d="M69.9665 68.1757H75.018C75.7786 68.1757 76.3976 68.4703 76.875 69.0597C77.099 69.3735 77.211 69.7042 77.211 70.0519V73.1365C77.211 73.8276 76.8243 74.3725 76.0511 74.771C75.7257 74.9237 75.3814 75 75.018 75H70.0299C69.2904 75 68.6756 74.699 68.1855 74.0969C67.9742 73.7958 67.8686 73.4821 67.8686 73.1556V70.0391C67.8686 69.3141 68.2953 68.7502 69.1489 68.3474C69.4869 68.2329 69.7595 68.1757 69.9665 68.1757ZM70.0426 70.9105V72.2524C70.0426 72.8037 70.3278 73.1704 70.8982 73.3527C70.9785 73.3739 71.063 73.3845 71.1517 73.3845H73.9405C74.4391 73.3845 74.7877 73.1195 74.9863 72.5895C75.0159 72.5132 75.0307 72.4115 75.0307 72.2843V70.9868C75.0307 70.4059 74.7623 70.018 74.2257 69.8229C74.0694 69.8059 73.932 69.7975 73.8137 69.7975H71.1517C70.6404 69.7975 70.2855 70.0603 70.0869 70.5861C70.0573 70.6921 70.0426 70.8002 70.0426 70.9105Z" fill="white"/>
<path d="M77.8765 68.1757H79.9871C80.0082 68.1799 80.0188 68.1905 80.0188 68.2075V73.3845H87.1555C87.1766 73.3845 87.1872 73.393 87.1872 73.41V74.9682C87.1872 74.9894 87.1766 75 87.1555 75H77.8765C77.8553 75 77.8448 74.9894 77.8448 74.9682V68.2075C77.849 68.1862 77.8596 68.1757 77.8765 68.1757Z" fill="white"/>
<path d="M91.8203 68.1757H93.9816C94.0239 68.2138 94.4697 68.9579 95.319 70.408C97.0345 73.3294 97.9282 74.8558 98 74.9873V75H95.5028C95.4563 74.9576 95.1816 74.4997 94.6788 73.6262H91.1358C90.6583 74.4615 90.39 74.9194 90.3309 75H87.821V74.9682C90.39 70.5882 91.7232 68.3241 91.8203 68.1757ZM92.9042 70.637L92.0929 72.0108H93.7218C93.2063 71.1246 92.9337 70.6667 92.9042 70.637Z" fill="white"/>
</svg>
