<svg width="253" height="194" viewBox="0 0 253 194" fill="none" xmlns="http://www.w3.org/2000/svg">
<path fill-rule="evenodd" clip-rule="evenodd" d="M82.9589 0C67.5359 0 55.0332 12.5705 55.0332 28.077V120.731C55.0332 136.238 67.5359 148.808 82.9589 148.808H175.114C190.536 148.808 203.039 136.238 203.039 120.731V28.077C203.039 12.5705 190.536 0 175.114 0H82.9589ZM166.736 36.5001H91.3366V112.308H166.736V36.5001Z" fill="#212121"/>
<path d="M116.47 61.7694H141.603V87.0387H116.47V61.7694Z" fill="#212121"/>
<path d="M0.0818135 176.348H24.0368C24.0913 176.359 24.1186 176.386 24.1186 176.43V180.461C24.1186 180.515 24.0913 180.543 24.0368 180.543H14.8901V193.918C14.8901 193.973 14.8628 194 14.8082 194H9.3431C9.28856 194 9.26129 193.973 9.26129 193.918V180.543H0.0818135C0.0272712 180.543 0 180.515 0 180.461V176.43C0.0109085 176.375 0.0381796 176.348 0.0818135 176.348Z" fill="#212121"/>
<path d="M25.8367 176.348H44.3265C46.0064 176.348 47.4736 176.995 48.7281 178.289C49.4917 179.177 49.8735 180.137 49.8735 181.168V184.359C49.8735 186.016 48.9681 187.387 47.1573 188.472L46.4537 188.785L49.8735 193.967L49.7917 194H43.1484C42.9848 193.814 41.8994 192.196 39.8923 189.147H31.3673V193.918C31.3673 193.973 31.34 194 31.2855 194H25.8367C25.7822 194 25.7549 193.973 25.7549 193.918V176.43C25.7658 176.375 25.7931 176.348 25.8367 176.348ZM31.3673 180.543V184.952H42.0194C43.1539 184.952 43.8738 184.453 44.1793 183.455C44.2229 183.224 44.2447 183 44.2447 182.78C44.2447 181.716 43.8029 181.009 42.9193 180.658C42.6466 180.581 42.3685 180.543 42.0849 180.543H31.3673Z" fill="#212121"/>
<path d="M61.8346 176.348H67.4143C67.5234 176.446 68.6742 178.371 70.8668 182.122C75.2957 189.679 77.6028 193.627 77.7883 193.967V194H71.3414C71.2214 193.89 70.5123 192.706 69.2142 190.447H60.0675C58.8348 192.607 58.1421 193.792 57.9894 194H51.5098V193.918C58.1421 182.588 61.5837 176.732 61.8346 176.348ZM64.6327 182.714L62.5382 186.268H66.7434C65.4126 183.976 64.709 182.791 64.6327 182.714Z" fill="#212121"/>
<path d="M79.5063 176.348H97.9962C99.6652 176.348 101.132 176.995 102.398 178.289C103.161 179.177 103.543 180.137 103.543 181.168V189.262C103.543 190.765 102.73 192.053 101.105 193.128C100.047 193.709 99.0379 194 98.078 194H79.5063C79.4518 194 79.4245 193.973 79.4245 193.918V176.43C79.4354 176.375 79.4627 176.348 79.5063 176.348ZM85.0369 180.543V189.821H95.1C96.3654 189.821 97.2653 189.147 97.7998 187.798C97.8762 187.524 97.9144 187.249 97.9144 186.975V183.422C97.9144 182.128 97.2762 181.217 95.9999 180.691C95.7272 180.592 95.4109 180.543 95.0509 180.543H85.0369Z" fill="#212121"/>
<path d="M105.261 176.348H129.216C129.271 176.359 129.298 176.386 129.298 176.43V180.461C129.298 180.515 129.271 180.543 129.216 180.543H110.792V183.257H124.422C124.476 183.268 124.504 183.296 124.504 183.34V187.008C124.504 187.063 124.476 187.09 124.422 187.09H110.792V189.821H129.216C129.271 189.821 129.298 189.843 129.298 189.887V193.918C129.298 193.973 129.271 194 129.216 194H105.261C105.207 194 105.179 193.973 105.179 193.918V176.43C105.19 176.375 105.218 176.348 105.261 176.348Z" fill="#212121"/>
<path d="M147.297 176.348H153.744C153.94 176.567 154.66 177.779 155.904 179.983C156.002 180.104 157.507 182.66 160.42 187.65H160.453C164.805 180.214 167.019 176.446 167.096 176.348H173.575C173.575 176.457 171.923 179.287 168.618 184.837C166.043 189.267 164.249 192.322 163.234 194H157.622C157.349 193.605 153.962 187.825 147.461 176.66C147.417 176.66 147.362 176.556 147.297 176.348Z" fill="#212121"/>
<path d="M180.628 176.348H193.669C195.632 176.348 197.23 177.11 198.463 178.634C199.041 179.446 199.33 180.301 199.33 181.201V189.18C199.33 190.967 198.332 192.377 196.336 193.408C195.496 193.803 194.607 194 193.669 194H180.791C178.882 194 177.295 193.221 176.03 191.664C175.484 190.885 175.212 190.074 175.212 189.229V181.168C175.212 179.292 176.314 177.834 178.517 176.792C179.39 176.496 180.093 176.348 180.628 176.348ZM180.824 183.422V186.893C180.824 188.319 181.56 189.267 183.033 189.739C183.24 189.794 183.459 189.821 183.688 189.821H190.887C192.174 189.821 193.074 189.136 193.587 187.765C193.663 187.568 193.702 187.304 193.702 186.975V183.619C193.702 182.117 193.009 181.113 191.624 180.609C191.22 180.565 190.865 180.543 190.56 180.543H183.688C182.368 180.543 181.451 181.223 180.939 182.583C180.862 182.857 180.824 183.137 180.824 183.422Z" fill="#212121"/>
<path d="M201.048 176.348H206.497C206.552 176.359 206.579 176.386 206.579 176.43V189.821H225.003C225.058 189.821 225.085 189.843 225.085 189.887V193.918C225.085 193.973 225.058 194 225.003 194H201.048C200.994 194 200.967 193.973 200.967 193.918V176.43C200.978 176.375 201.005 176.348 201.048 176.348Z" fill="#212121"/>
<path d="M237.046 176.348H242.626C242.735 176.446 243.886 178.371 246.079 182.122C250.507 189.679 252.815 193.627 253 193.967V194H246.553C246.433 193.89 245.724 192.706 244.426 190.447H235.279C234.047 192.607 233.354 193.792 233.201 194H226.722V193.918C233.354 182.588 236.795 176.732 237.046 176.348ZM239.844 182.714L237.75 186.268H241.955C240.624 183.976 239.921 182.791 239.844 182.714Z" fill="#212121"/>
</svg>
