<svg width="16" height="25" viewBox="0 0 16 25" xmlns="http://www.w3.org/2000/svg">
<path d="M1.33333 12.9863L12.0136 23.6664C12.2607 23.9136 12.5904 24.0498 12.942 24.0498C13.2936 24.0498 13.6234 23.9136 13.8704 23.6664L14.6569 22.8801C15.1687 22.3677 15.1687 21.5349 14.6569 21.0233L5.68842 12.0548L14.6669 3.07632C14.9139 2.8291 15.0503 2.49954 15.0503 2.14813C15.0503 1.79633 14.9139 1.46677 14.6669 1.21935L13.8804 0.433216C13.6331 0.185999 13.3036 0.0498047 12.952 0.0498047C12.6004 0.0498047 12.2706 0.185999 12.0236 0.433216L1.33333 11.1231C1.08572 11.3711 0.949723 11.7022 0.950504 12.0542C0.949723 12.4076 1.08572 12.7385 1.33333 12.9863Z"/>
</svg>
