<svg width="11" height="18" viewBox="0 0 11 18" fill="none" xmlns="http://www.w3.org/2000/svg">
<path d="M10.7013 8.29764L2.36906 0.287559C2.17634 0.102146 1.91909 0 1.64478 0C1.37047 0 1.11321 0.102146 0.920498 0.287559L0.306883 0.87731C-0.0923997 1.2616 -0.0923997 1.88618 0.306883 2.26988L7.3037 8.99627L0.29912 15.7301C0.106404 15.9155 0 16.1627 0 16.4263C0 16.6901 0.106404 16.9373 0.29912 17.1228L0.912734 17.7124C1.1056 17.8979 1.36271 18 1.63702 18C1.91132 18 2.16858 17.8979 2.3613 17.7124L10.7013 9.69504C10.8945 9.50904 11.0006 9.26071 11 8.99671C11.0006 8.73169 10.8945 8.48349 10.7013 8.29764Z" fill="white"/>
</svg>
