<svg width="36" height="36" viewBox="0 0 36 36" xmlns="http://www.w3.org/2000/svg">
<g clip-path="url(#clip0)">
<path d="M17.7435 17.3413C20.1259 17.3413 22.1888 16.4868 23.8744 14.801C25.56 13.1154 26.4144 11.053 26.4144 8.67038C26.4144 6.28855 25.56 4.22587 23.8741 2.53975C22.1883 0.854458 20.1256 0 17.7435 0C15.3608 0 13.2984 0.854458 11.6128 2.54003C9.92725 4.2256 9.07251 6.28827 9.07251 8.67038C9.07251 11.053 9.92725 13.1157 11.6131 14.8013C13.299 16.4866 15.3616 17.3413 17.7435 17.3413Z"/>
<path d="M32.9153 27.6821C32.8667 26.9807 32.7684 26.2155 32.6236 25.4074C32.4775 24.5934 32.2894 23.8238 32.0641 23.1204C31.8315 22.3934 31.5151 21.6754 31.124 20.9874C30.718 20.2733 30.2412 19.6514 29.7062 19.1398C29.1467 18.6045 28.4617 18.1741 27.6696 17.8601C26.8802 17.5479 26.0055 17.3896 25.0697 17.3896C24.7022 17.3896 24.3468 17.5404 23.6604 17.9873C23.238 18.2628 22.7439 18.5814 22.1924 18.9338C21.7208 19.2342 21.0819 19.5158 20.2928 19.7707C19.523 20.0198 18.7413 20.1461 17.9698 20.1461C17.1983 20.1461 16.4169 20.0198 15.6462 19.7707C14.8579 19.516 14.2191 19.2345 13.748 18.934C13.2017 18.585 12.7073 18.2664 12.2786 17.987C11.593 17.5402 11.2374 17.3894 10.8699 17.3894C9.93384 17.3894 9.05933 17.5479 8.27023 17.8604C7.47867 18.1738 6.7934 18.6042 6.23337 19.14C5.69861 19.652 5.22153 20.2735 4.81613 20.9874C4.42529 21.6754 4.10889 22.3931 3.87598 23.1206C3.65103 23.824 3.46289 24.5934 3.31677 25.4074C3.17203 26.2144 3.0737 26.9799 3.02509 27.683C2.97729 28.3718 2.95312 29.0867 2.95312 29.8088C2.95312 31.688 3.55051 33.2093 4.72852 34.3313C5.89197 35.4385 7.43143 36.0001 9.3035 36.0001H26.6377C28.5098 36.0001 30.0487 35.4387 31.2124 34.3313C32.3907 33.2102 32.9881 31.6886 32.9881 29.8085C32.9878 29.0832 32.9634 28.3677 32.9153 27.6821Z"/>
</g>
<defs>
<clipPath id="clip0">
<rect width="36" height="36" fill="white"/>
</clipPath>
</defs>
</svg>
