<svg width="30" height="30" viewBox="0 0 30 30" fill="none" xmlns="http://www.w3.org/2000/svg">
<g clip-path="url(#clip0)">
<path d="M24.8937 16.285C24.4087 15.6725 24.5475 15.4 24.8937 14.8525C24.9 14.8463 28.9037 9.31375 29.3162 7.4375L29.3187 7.43625C29.5237 6.7525 29.3187 6.25 28.3275 6.25H25.0475C24.2125 6.25 23.8275 6.68125 23.6212 7.16375C23.6212 7.16375 21.9512 11.1613 19.5887 13.7525C18.8262 14.5013 18.4737 14.7413 18.0575 14.7413C17.8525 14.7413 17.5337 14.5013 17.5337 13.8175V7.43625C17.5337 6.61625 17.3 6.25 16.6087 6.25H11.4512C10.9275 6.25 10.6162 6.6325 10.6162 6.98875C10.6162 7.76625 11.7975 7.945 11.92 10.1325V14.8788C11.92 15.9188 11.7312 16.11 11.3125 16.11C10.1975 16.11 7.49125 12.0963 5.8875 7.5025C5.56375 6.61125 5.2475 6.25125 4.40625 6.25125H1.125C0.18875 6.25125 0 6.6825 0 7.165C0 8.0175 1.115 12.2563 5.185 17.8563C7.8975 21.6788 11.7175 23.75 15.1925 23.75C17.2812 23.75 17.5362 23.29 17.5362 22.4988C17.5362 18.8463 17.3475 18.5013 18.3937 18.5013C18.8787 18.5013 19.7137 18.7413 21.6637 20.585C23.8925 22.7713 24.2587 23.75 25.5062 23.75H28.7862C29.7212 23.75 30.195 23.29 29.9225 22.3825C29.2987 20.4738 25.0837 16.5475 24.8937 16.285Z" fill="#212121"/>
</g>
<defs>
<clipPath id="clip0">
<rect width="30" height="30" fill="white"/>
</clipPath>
</defs>
</svg>
