<?xml version="1.0" encoding="utf-8"?><svg viewBox="0 0 253 194" xmlns="http://www.w3.org/2000/svg" xmlns:xlink="http://www.w3.org/1999/xlink"><style>:root>svg{display:none}:root>svg:target{display:block}</style><svg viewBox="0 0 19 19" id="close" xmlns="http://www.w3.org/2000/svg"><g clip-path="url(#aclip0)"><path d="M10.55 9.502l8.232-8.233a.742.742 0 10-1.05-1.05L9.5 8.452 1.266.22a.742.742 0 10-1.05 1.05L8.45 9.502.217 17.735a.742.742 0 101.05 1.05l8.232-8.234 8.234 8.233a.74.74 0 001.05 0c.289-.29.289-.76 0-1.05l-8.234-8.232z"/></g><defs><clipPath id="aclip0"><path d="M0 0h19v19H0z"/></clipPath></defs></svg><svg fill="none" viewBox="0 0 22 28" id="course-icon1" xmlns="http://www.w3.org/2000/svg"><path d="M20.188 0H4.546C2.557 0 .937 1.62.937 3.61v20.452A3.942 3.942 0 004.876 28h15.313a.875.875 0 100-1.75H4.874a2.19 2.19 0 01-2.188-2.188 2.19 2.19 0 012.188-2.187h15.313a.875.875 0 00.875-.875V.875A.875.875 0 0020.188 0zm-17.5 20.313V3.609A1.86 1.86 0 014.546 1.75h.055c.15 0 .273.122.273.273V19.86c0 .143-.11.264-.253.273a3.909 3.909 0 00-1.54.424.273.273 0 01-.394-.244z" fill="#fff"/></svg><svg fill="none" viewBox="0 0 31 31" id="course-icon10" xmlns="http://www.w3.org/2000/svg"><g clip-path="url(#cclip0)" fill="#fff"><path d="M15.5 9.594a5.913 5.913 0 00-5.907 5.907 5.913 5.913 0 005.907 5.906 5.913 5.913 0 005.906-5.906A5.913 5.913 0 0015.5 9.594zm3.507 4.794l-4.232 4.232a.907.907 0 01-1.286 0l-1.617-1.617a.91.91 0 111.286-1.286l.974.973 3.589-3.588a.91.91 0 111.286 1.286z"/><path d="M28.668 8.411v-.024a32.118 32.118 0 01-.029-.963 3.286 3.286 0 00-3.093-3.219c-3.564-.199-6.322-1.361-8.678-3.657l-.02-.02a1.984 1.984 0 00-2.696 0l-.02.02c-2.356 2.296-5.113 3.458-8.677 3.657A3.285 3.285 0 002.36 7.424c-.005.348-.014.663-.028.963l-.001.056c-.07 3.635-.156 8.158 1.358 12.263.832 2.258 2.092 4.22 3.745 5.834 1.882 1.837 4.348 3.296 7.329 4.335A2.273 2.273 0 0015.5 31a2.23 2.23 0 00.738-.126c2.977-1.04 5.44-2.5 7.321-4.337 1.652-1.614 2.912-3.577 3.745-5.835 1.52-4.118 1.433-8.65 1.364-12.29zM15.5 23.226c-4.26 0-7.726-3.465-7.726-7.725S11.24 7.775 15.5 7.775s7.725 3.466 7.725 7.726-3.466 7.725-7.725 7.725z"/></g><defs><clipPath id="cclip0"><path fill="#fff" d="M0 0h31v31H0z"/></clipPath></defs></svg><svg fill="none" viewBox="0 0 30 30" id="course-icon2" xmlns="http://www.w3.org/2000/svg"><path d="M15 0C6.729 0 0 6.729 0 15s6.729 15 15 15 15-6.729 15-15S23.271 0 15 0zm7.134 22.759a1.247 1.247 0 01-1.768 0l-6.25-6.25a1.244 1.244 0 01-.366-.884V7.5a1.25 1.25 0 112.5 0v7.608l5.884 5.883a1.249 1.249 0 010 1.768z" fill="#fff"/></svg><svg fill="none" viewBox="0 0 27 27" id="course-icon3" xmlns="http://www.w3.org/2000/svg"><path d="M26.961 10.402a.79.79 0 00-.638-.538l-8.37-1.216-3.744-7.585a.79.79 0 00-1.418 0L9.047 8.648.677 9.864a.791.791 0 00-.438 1.35l6.056 5.903-1.43 8.336a.79.79 0 001.148.834l7.487-3.936 7.486 3.936a.79.79 0 001.148-.834l-1.43-8.336 6.057-5.904a.79.79 0 00.2-.81z" fill="#fff"/></svg><svg fill="none" viewBox="0 0 33 17" id="course-icon4" xmlns="http://www.w3.org/2000/svg"><path d="M25.457.486c-4.682 0-7.78 3.828-10.514 7.206-2.335 2.885-4.54 5.61-7.226 5.61-2.792 0-4.506-2.87-4.506-4.926 0-1.907 1.88-4.679 4.828-4.679 2.86 0 4.349 2.289 4.424 2.406a1.605 1.605 0 002.736-1.68c-.098-.16-2.453-3.937-7.16-3.937C3.3.486 0 4.645 0 8.376c0 3.849 3.17 8.138 7.717 8.138 4.217 0 7.016-3.458 9.722-6.802 2.504-3.093 4.868-6.015 8.018-6.015 1.874 0 3.105.636 3.763 1.942.57 1.134.57 2.416.57 2.86 0 .256-.135 1.534-.759 2.684-.71 1.312-1.72 1.922-3.178 1.922-2.937 0-4.524-1.91-5.121-2.628-.155-.187-.267-.322-.417-.45a1.606 1.606 0 00-2.159 2.375c.03.033.064.076.106.126.779.937 3.146 3.787 7.59 3.787 5.401 0 7.148-5.266 7.148-7.837 0-1.638-.306-3.078-.913-4.283-.851-1.691-2.693-3.709-6.63-3.709z" fill="#fff"/></svg><svg fill="none" viewBox="0 0 26 26" id="course-icon5" xmlns="http://www.w3.org/2000/svg"><g clip-path="url(#gclip0)" fill="#fff"><path d="M16.92 5.842A8.893 8.893 0 008.938.863C4.01.863 0 4.85 0 9.75c0 1.331.286 2.608.85 3.798l-.835 4.177a.762.762 0 00.895.897l4.229-.837a8.76 8.76 0 001.763.617C5.546 11.977 10.416 5.945 16.92 5.842z"/><path d="M25.15 20.047c.146-.307.273-.62.381-.94h-.028c1.902-5.581-2.097-11.448-8.001-11.733v-.001c-5.08-.234-9.3 3.833-9.3 8.877 0 4.895 3.979 8.879 8.873 8.886a8.787 8.787 0 003.786-.85c4.632.915 4.27.85 4.377.85.482 0 .841-.441.747-.911l-.835-4.178z"/></g><defs><clipPath id="gclip0"><path fill="#fff" d="M0 0h26v26H0z"/></clipPath></defs></svg><svg fill="none" viewBox="0 0 22 22" id="course-icon6" xmlns="http://www.w3.org/2000/svg"><path d="M20.137 4.88l-.33.104-1.752.156-.495.79-.36-.113-1.394-1.258-.203-.654-.27-.698-.878-.786-1.034-.202-.024.473 1.014.989.495.584-.557.291-.454-.134-.68-.283.023-.549-.892-.367-.296 1.29-.9.203.09.72 1.171.225.203-1.15.967.144.45.263h.72l.494.989 1.31 1.328-.097.516-1.055-.135-1.824.921-1.313 1.575-.17.697h-.472l-.878-.404-.853.405.212.9.371-.429.653-.02-.045.808.54.159.54.606.882-.248 1.007.16 1.17.313.583.07.99 1.123 1.912 1.124-1.236 2.361-1.305.607-.495 1.35-1.888 1.26-.201.727C18.409 20.518 22 16.183 22 10.999a10.952 10.952 0 00-1.863-6.12z" fill="#fff"/><path d="M12.265 16.748l-.8-1.485.735-1.532-.736-.22-.825-.829-1.83-.41-.606-1.27v.753h-.268L6.359 9.618V7.863l-1.156-1.88-1.835.328H2.132l-.621-.408.793-.629-.791.183a10.932 10.932 0 00-1.51 5.544C.003 17.074 4.927 22 11 22c.468 0 .926-.041 1.38-.096l-.115-1.333s.505-1.979.505-2.046c0-.068-.506-1.776-.506-1.776zM4.09 3.547l1.954-.272.9-.494 1.013.292 1.62-.09.554-.872.809.133 1.964-.184.541-.596.764-.51 1.08.162.393-.06A10.96 10.96 0 002.518 4h.006l1.566-.452zm7.375-2.453l1.123-.619.722.417-1.045.795-.997.1-.449-.291.646-.402zm-3.327.09l.496.207.649-.207.354.613-1.499.393-.72-.421c-.001 0 .704-.454.72-.585z" fill="#fff"/></svg><svg fill="none" viewBox="0 0 30 30" id="course-icon7" xmlns="http://www.w3.org/2000/svg"><path d="M7.25 7.625c-1-1-5.25-1.25-6.625-1.375-.125 0-.25 0-.375.125s-.25.375-.25.5v11.25c0 .375.25.625.625.625h3.75c.25 0 .5-.125.625-.375 0-.375 2.25-7 2.5-10.25 0-.125 0-.375-.25-.5zM20.625 10.625c-1.25-.375-2.375-.875-3.375-1.25-2.25-1-3.25-.5-5.25 1.5-.875.875-1.5 2.125-1.375 2.625 0 .125 0 .125.25.25.625.25 1.5.375 2.375-1 .125-.125.25-.25.5-.25.375 0 .5-.125.875-.25.25-.125.5-.25.875-.375h.25c.125 0 .375.125.5.125.625.625 1.75 1.5 2.875 2.5 1.75 1.375 3.5 2.875 4.375 4h.125c-.875-2.5-2.375-6.75-3-7.875zM29.375 7.5c-4.875 0-7.625 1.25-7.75 1.25l-.375.375c0 .125 0 .375.125.5.75 1.25 3.25 8.125 3.625 9.875.125.25.375.5.625.5h3.75c.375 0 .625-.25.625-.625V8.125c0-.375-.25-.625-.625-.625z" fill="#fff"/><path d="M22.625 19.75c-.5-1.125-2.625-2.75-4.5-4.25-1-.875-2-1.625-2.75-2.25-.125.125-.375.125-.375.25-.375.125-.5.25-1 .25C13 15 11.75 15.5 10.375 15c-.625-.125-1-.625-1.125-1.125-.25-1.25.875-3 1.75-3.875H8.5c-.5 2.5-1.375 5.75-2 7.5.5.5 1 1.125 1.375 1.375 2.375 2 5.125 4 5.625 4.375.375.25 1.125.5 1.5.5h.375l-2-2a.604.604 0 010-.875c.25-.25.625-.25.875 0l2.5 2.5c.25.25.5.125.75.125.375-.125.5-.375.625-.75l-2.875-2.875a.604.604 0 010-.875c.25-.25.625-.25.875 0l3.125 3.125c.125.125.625.125 1 0 .125-.125.375-.25.5-.5l-3.5-3.5a.604.604 0 010-.875c.25-.25.625-.25.875 0l3.625 3.625c.25.125.5 0 .75-.125a.849.849 0 00.125-1z" fill="#fff"/></svg><svg fill="none" viewBox="0 0 31 31" id="course-icon8" xmlns="http://www.w3.org/2000/svg"><g clip-path="url(#jclip0)" fill="#fff"><path d="M15.5 4.465a.97.97 0 01-.969-.968V.969a.97.97 0 011.938 0v2.528a.97.97 0 01-.969.968zM23.988 7.981a.969.969 0 01-.685-1.655L25.09 4.54a.969.969 0 111.37 1.37l-1.788 1.788a.971.971 0 01-.685.284zM30.031 16.469h-2.528a.97.97 0 010-1.938h2.528a.97.97 0 010 1.938zM25.775 26.744a.96.96 0 01-.684-.284l-1.788-1.788a.969.969 0 111.37-1.37l1.788 1.787a.969.969 0 01-.686 1.655zM5.225 26.744a.97.97 0 01-.685-1.655l1.788-1.787a.969.969 0 111.37 1.37L5.911 26.46a.966.966 0 01-.686.284zM3.497 16.469H.969a.97.97 0 010-1.938h2.528a.97.97 0 010 1.938zM7.012 7.981a.961.961 0 01-.684-.284L4.54 5.91a.969.969 0 111.37-1.37l1.788 1.788a.969.969 0 01-.686 1.654zM19.375 27.125v1.615c0 1.24-1.02 2.26-2.26 2.26h-3.23c-1.085 0-2.26-.827-2.26-2.635v-1.24h7.75zM21.196 8.473c-2.118-1.717-4.908-2.39-7.634-1.808-3.422.71-6.2 3.5-6.91 6.923-.723 3.514.594 7.001 3.41 9.133.762.568 1.292 1.446 1.473 2.467v.013c.025-.013.064-.013.09-.013h7.75c.026 0 .039 0 .064.013v-.013c.181-.982.762-1.886 1.654-2.584A9.023 9.023 0 0024.54 15.5a9.006 9.006 0 00-3.345-7.027zm-.852 7.673a.976.976 0 01-.97-.969 3.55 3.55 0 00-3.551-3.552.976.976 0 01-.969-.969c0-.53.44-.968.969-.968a5.502 5.502 0 015.49 5.49c0 .529-.44.968-.97.968z"/><path d="M11.534 25.188h.09a.22.22 0 00-.09.012v-.012zM19.44 25.188v.012c-.026-.012-.04-.012-.065-.012h.065z"/></g><defs><clipPath id="jclip0"><path fill="#fff" d="M0 0h31v31H0z"/></clipPath></defs></svg><svg fill="none" viewBox="0 0 26 26" id="course-icon9" xmlns="http://www.w3.org/2000/svg"><g clip-path="url(#kclip0)" fill="#fff"><path d="M8.371 11.024c.237 1.54 1.427 3.499 3.381 4.188.802.28 1.68.285 2.482-.006 1.922-.694 3.15-2.648 3.391-4.182.259-.022.598-.383.964-1.68.5-1.771-.032-2.035-.484-1.992.086-.242.15-.49.193-.727.765-4.592-1.496-4.748-1.496-4.748s-.377-.721-1.362-1.265C14.778.22 13.857-.082 12.646.02a4.172 4.172 0 00-1.115.21c-.446.15-.856.372-1.227.63-.452.285-.883.64-1.26 1.044-.597.614-1.13 1.405-1.362 2.39-.193.738-.15 1.508.011 2.337.043.242.108.484.194.727-.452-.043-.985.22-.485 1.991.372 1.292.711 1.653.97 1.675z"/><path d="M21.878 17.047c-2.75-.7-4.985-2.271-4.985-2.271l-1.744 5.518-.328 1.038-.006-.016-.285.883-.92-2.61c2.26-3.155-.458-3.123-.609-3.118-.15-.005-2.87-.037-.608 3.117l-.92 2.611-.286-.883-.006.017-.328-1.04-1.75-5.517S6.87 16.348 4.12 17.047c-2.052.523-2.148 2.891-2.068 4.06 0 0 .119 1.588.237 2.287 0 0 4.005 2.6 10.713 2.606 6.708 0 10.713-2.606 10.713-2.606.118-.7.237-2.288.237-2.288.075-1.168-.022-3.536-2.073-4.059z"/></g><defs><clipPath id="kclip0"><path fill="#fff" d="M0 0h26v26H0z"/></clipPath></defs></svg><svg viewBox="0 0 22 22" id="enter" xmlns="http://www.w3.org/2000/svg"><g clip-path="url(#lclip0)"><path d="M21.93 9.733a.929.929 0 00-.199-.299l-2.749-2.749a.917.917 0 00-1.296 1.296l1.185 1.186h-5.12a.916.916 0 100 1.833h5.12l-1.185 1.185a.916.916 0 101.296 1.296l2.75-2.749a.918.918 0 00.199-.999z"/><path d="M15.585 12.833a.916.916 0 00-.917.917v4.583H11V3.667a.918.918 0 00-.653-.878l-3.184-.956h7.504v4.584a.916.916 0 101.833 0v-5.5A.916.916 0 0015.584 0H.918C.885 0 .856.014.823.017a.919.919 0 00-.388.136C.415.166.39.167.37.181.363.187.36.197.353.203a.908.908 0 00-.244.29C.097.516.094.542.084.568.054.64.022.707.01.784.007.81.015.837.014.864c0 .018-.013.034-.013.053V19.25c0 .437.31.813.737.898l9.167 1.834A.916.916 0 0011 21.084v-.917h4.584c.506 0 .916-.411.916-.917v-5.5a.916.916 0 00-.917-.917z"/></g><defs><clipPath id="lclip0"><path fill="#fff" d="M0 0h22v22H0z"/></clipPath></defs></svg><svg fill="none" viewBox="0 0 29 29" id="instagram" xmlns="http://www.w3.org/2000/svg"><path d="M21.15 0H7.85C3.521 0 0 3.521 0 7.85v13.3C0 25.48 3.521 29 7.85 29h13.3C25.48 29 29 25.479 29 21.15V7.85C29 3.521 25.479 0 21.15 0zM14.5 22.43c-4.372 0-7.93-3.558-7.93-7.93s3.558-7.93 7.93-7.93 7.93 3.558 7.93 7.93-3.558 7.93-7.93 7.93zm8.119-13.99a2.345 2.345 0 01-2.343-2.343 2.346 2.346 0 012.343-2.343 2.346 2.346 0 012.343 2.343 2.346 2.346 0 01-2.343 2.344z" fill="#212121"/><path d="M14.5 8.27a6.236 6.236 0 00-6.23 6.23 6.237 6.237 0 006.23 6.23 6.236 6.236 0 006.23-6.23 6.236 6.236 0 00-6.23-6.23zM22.619 5.454a.644.644 0 10.002 1.288.644.644 0 00-.002-1.288z" fill="#212121"/></svg><svg fill="none" viewBox="0 0 98 75" id="logo" xmlns="http://www.w3.org/2000/svg"><path fill-rule="evenodd" clip-rule="evenodd" d="M32.134 0C26.16 0 21.317 4.86 21.317 10.854v35.82c0 5.995 4.843 10.855 10.817 10.855h35.697c5.974 0 10.817-4.86 10.817-10.855v-35.82C78.648 4.86 73.805 0 67.83 0H32.134zm32.451 14.11H35.38v29.308h29.206V14.111z" fill="#fff"/><path d="M45.115 23.88h9.735v9.769h-9.735v-9.77zM.032 68.176H9.31c.02.004.031.014.031.031v1.559c0 .02-.01.031-.031.031H5.768v5.171c0 .021-.01.032-.032.032H3.619c-.021 0-.032-.01-.032-.032v-5.17H.032c-.021 0-.032-.011-.032-.032v-1.559c.004-.02.015-.031.032-.031zM10.008 68.176h7.162c.65 0 1.219.25 1.705.75.296.344.444.715.444 1.113v1.234c0 .64-.351 1.17-1.052 1.59l-.273.12 1.325 2.004-.032.013h-2.573c-.064-.072-.484-.698-1.262-1.876H12.15v1.844c0 .021-.01.032-.032.032h-2.11c-.021 0-.032-.01-.032-.032v-6.76c.004-.022.015-.032.032-.032zm2.142 1.621v1.705h4.126c.44 0 .719-.193.837-.579.017-.089.025-.176.025-.26 0-.412-.17-.685-.513-.821a1.189 1.189 0 00-.323-.044H12.15zM23.952 68.176h2.161c.042.038.488.782 1.337 2.232a832.88 832.88 0 012.681 4.58V75h-2.497c-.046-.042-.32-.5-.824-1.374h-3.543c-.477.835-.745 1.293-.805 1.374h-2.51v-.032c2.57-4.38 3.903-6.644 4-6.792zm1.084 2.461l-.812 1.374h1.63c-.516-.886-.789-1.344-.818-1.374zM30.797 68.176h7.162c.646 0 1.215.25 1.705.75.296.344.444.715.444 1.113v3.13c0 .58-.315 1.078-.945 1.494-.41.225-.8.337-1.172.337h-7.194c-.021 0-.032-.01-.032-.032v-6.76c.005-.022.015-.032.032-.032zm2.142 1.621v3.588h3.898c.49 0 .839-.261 1.046-.783.03-.106.044-.212.044-.318V70.91c0-.5-.247-.852-.741-1.055a1.081 1.081 0 00-.368-.058H32.94zM40.773 68.176h9.28c.02.004.03.014.03.031v1.559c0 .02-.01.031-.03.031h-7.138v1.05h5.28c.021.004.032.015.032.032v1.418c0 .021-.01.032-.032.032h-5.28v1.056h7.137c.021 0 .032.008.032.025v1.558c0 .021-.01.032-.032.032h-9.279c-.021 0-.032-.01-.032-.032v-6.76c.005-.022.015-.032.032-.032zM57.056 68.176h2.497c.076.084.355.553.837 1.405.038.047.62 1.035 1.749 2.964h.013a530.811 530.811 0 012.573-4.37h2.51c0 .043-.64 1.137-1.92 3.282A280.314 280.314 0 0163.228 75h-2.174c-.105-.153-1.417-2.387-3.936-6.704-.017 0-.038-.04-.063-.12zM69.966 68.176h5.052c.76 0 1.38.294 1.857.884.224.314.336.644.336.992v3.084c0 .692-.387 1.237-1.16 1.635-.325.153-.67.229-1.033.229H70.03c-.74 0-1.354-.301-1.844-.903a1.616 1.616 0 01-.317-.941v-3.117c0-.725.426-1.289 1.28-1.692.338-.114.61-.171.817-.171zm.077 2.734v1.342c0 .552.285.918.855 1.1a.99.99 0 00.254.032h2.788c.5 0 .848-.264 1.046-.794a.862.862 0 00.045-.306v-1.297c0-.581-.269-.969-.805-1.164a3.866 3.866 0 00-.412-.025h-2.662c-.512 0-.867.262-1.065.788a1.2 1.2 0 00-.044.325zM77.876 68.176h2.111c.021.004.032.014.032.031v5.178h7.136c.022 0 .032.008.032.025v1.558c0 .021-.01.032-.031.032h-9.28c-.02 0-.031-.01-.031-.032v-6.76c.004-.022.015-.032.031-.032zM91.82 68.176h2.162c.042.038.488.782 1.337 2.232A832.88 832.88 0 0198 74.988V75h-2.497c-.047-.042-.321-.5-.824-1.374h-3.543c-.478.835-.746 1.293-.805 1.374h-2.51v-.032c2.569-4.38 3.902-6.644 4-6.792zm1.084 2.461l-.811 1.374h1.629c-.516-.886-.788-1.344-.818-1.374z" fill="#fff"/></svg><svg fill="none" viewBox="0 0 253 194" id="logo-bottom" xmlns="http://www.w3.org/2000/svg"><path fill-rule="evenodd" clip-rule="evenodd" d="M82.959 0C67.536 0 55.033 12.57 55.033 28.077v92.654c0 15.507 12.503 28.077 27.926 28.077h92.155c15.422 0 27.925-12.57 27.925-28.077V28.077C203.039 12.57 190.536 0 175.114 0H82.959zm83.777 36.5h-75.4v75.808h75.4V36.5z" fill="#212121"/><path d="M116.47 61.77h25.133v25.269H116.47v-25.27zM.082 176.348h23.955c.054.011.082.038.082.082v4.031c0 .054-.028.082-.082.082H14.89v13.375c0 .055-.027.082-.082.082H9.343c-.054 0-.082-.027-.082-.082v-13.375H.081c-.054 0-.081-.028-.081-.082v-4.031c.01-.055.038-.082.082-.082zM25.837 176.348h18.49c1.68 0 3.147.647 4.401 1.941.764.888 1.145 1.848 1.145 2.879v3.191c0 1.657-.905 3.028-2.716 4.113l-.703.313 3.42 5.182-.082.033h-6.644c-.163-.186-1.249-1.804-3.256-4.853h-8.525v4.771c0 .055-.027.082-.082.082h-5.448c-.055 0-.082-.027-.082-.082V176.43c.01-.055.038-.082.082-.082zm5.53 4.195v4.409H42.02c1.135 0 1.855-.499 2.16-1.497.044-.231.066-.455.066-.675 0-1.064-.442-1.771-1.326-2.122a3.055 3.055 0 00-.834-.115H31.367zM61.835 176.348h5.58c.108.098 1.26 2.023 3.452 5.774 4.429 7.557 6.736 11.505 6.921 11.845V194h-6.447c-.12-.11-.829-1.294-2.127-3.553h-9.146c-1.233 2.16-1.926 3.345-2.079 3.553h-6.48v-.082c6.633-11.33 10.075-17.186 10.326-17.57zm2.798 6.366l-2.095 3.554h4.205c-1.33-2.292-2.034-3.477-2.11-3.554zM79.506 176.348h18.49c1.67 0 3.136.647 4.402 1.941.763.888 1.145 1.848 1.145 2.879v8.094c0 1.503-.813 2.791-2.438 3.866-1.058.581-2.067.872-3.027.872H79.506c-.054 0-.082-.027-.082-.082V176.43c.011-.055.039-.082.082-.082zm5.53 4.195v9.278H95.1c1.265 0 2.165-.674 2.7-2.023.076-.274.114-.549.114-.823v-3.553c0-1.294-.638-2.205-1.914-2.731a2.776 2.776 0 00-.95-.148H85.038zM105.261 176.348h23.955c.055.011.082.038.082.082v4.031c0 .054-.027.082-.082.082h-18.424v2.714h13.63c.054.011.082.039.082.083v3.668c0 .055-.028.082-.082.082h-13.63v2.731h18.424c.055 0 .082.022.082.066v4.031c0 .055-.027.082-.082.082h-23.955c-.054 0-.082-.027-.082-.082V176.43c.011-.055.039-.082.082-.082zM147.297 176.348h6.447c.196.219.916 1.431 2.16 3.635.098.121 1.603 2.677 4.516 7.667h.033c4.352-7.436 6.566-11.204 6.643-11.302h6.479c0 .109-1.652 2.939-4.957 8.489-2.575 4.43-4.369 7.485-5.384 9.163h-5.612c-.273-.395-3.66-6.175-10.161-17.34-.044 0-.099-.104-.164-.312zM180.628 176.348h13.041c1.963 0 3.561.762 4.794 2.286.578.812.867 1.667.867 2.567v7.979c0 1.787-.998 3.197-2.994 4.228a6.191 6.191 0 01-2.667.592h-12.878c-1.909 0-3.496-.779-4.761-2.336-.546-.779-.818-1.59-.818-2.435v-8.061c0-1.876 1.102-3.334 3.305-4.376.873-.296 1.576-.444 2.111-.444zm.196 7.074v3.471c0 1.426.736 2.374 2.209 2.846.207.055.426.082.655.082h7.199c1.287 0 2.187-.685 2.7-2.056.076-.197.115-.461.115-.79v-3.356c0-1.502-.693-2.506-2.078-3.01a9.981 9.981 0 00-1.064-.066h-6.872c-1.32 0-2.237.68-2.749 2.04a3.088 3.088 0 00-.115.839zM201.048 176.348h5.449c.055.011.082.038.082.082v13.391h18.424c.055 0 .082.022.082.066v4.031c0 .055-.027.082-.082.082h-23.955c-.054 0-.081-.027-.081-.082V176.43c.011-.055.038-.082.081-.082zM237.046 176.348h5.58c.109.098 1.26 2.023 3.453 5.774 4.428 7.557 6.736 11.505 6.921 11.845V194h-6.447c-.12-.11-.829-1.294-2.127-3.553h-9.147c-1.232 2.16-1.925 3.345-2.078 3.553h-6.479v-.082c6.632-11.33 10.073-17.186 10.324-17.57zm2.798 6.366l-2.094 3.554h4.205c-1.331-2.292-2.034-3.477-2.111-3.554z" fill="#212121"/></svg><svg fill="none" viewBox="0 0 17 20" id="play" xmlns="http://www.w3.org/2000/svg"><path d="M16.852 10.094L.114 19.534.308.317l16.544 9.776z" fill="#fff"/></svg><svg viewBox="0 0 16 25" id="questions-arrow" xmlns="http://www.w3.org/2000/svg"><path d="M1.333 12.986l10.68 10.68c.248.248.577.384.929.384.352 0 .681-.136.928-.384l.787-.786a1.315 1.315 0 000-1.857l-8.969-8.968 8.979-8.979c.247-.247.383-.576.383-.928 0-.352-.136-.681-.383-.929L13.88.433a1.304 1.304 0 00-.928-.383c-.352 0-.681.136-.928.383l-10.69 10.69c-.248.248-.384.58-.383.931-.001.354.135.684.382.932z"/></svg><svg fill="none" viewBox="0 0 11 18" id="slider-arrow" xmlns="http://www.w3.org/2000/svg"><path d="M10.701 8.298L2.37.288A1.038 1.038 0 001.645 0C1.37 0 1.113.102.92.288l-.613.59a.96.96 0 000 1.392l6.997 6.726L.299 15.73a.96.96 0 000 1.393l.614.59c.193.185.45.287.724.287.274 0 .532-.102.724-.288l8.34-8.017A.96.96 0 0011 8.997a.96.96 0 00-.299-.7z" fill="#fff"/></svg><svg viewBox="0 0 36 36" id="user" xmlns="http://www.w3.org/2000/svg"><g clip-path="url(#sclip0)"><path d="M17.744 17.341c2.382 0 4.445-.854 6.13-2.54 1.686-1.686 2.54-3.748 2.54-6.13 0-2.382-.854-4.445-2.54-6.131S20.126 0 17.744 0c-2.383 0-4.446.854-6.131 2.54-1.686 1.686-2.54 3.748-2.54 6.13 0 2.383.854 4.446 2.54 6.131 1.686 1.686 3.749 2.54 6.13 2.54zM32.915 27.682a21.403 21.403 0 00-.291-2.275 17.908 17.908 0 00-.56-2.287 11.295 11.295 0 00-.94-2.133 8.05 8.05 0 00-1.418-1.847 6.253 6.253 0 00-2.036-1.28 7.04 7.04 0 00-2.6-.47c-.368 0-.723.15-1.41.597-.422.276-.916.594-1.468.947-.471.3-1.11.582-1.9.837-.769.249-1.55.375-2.322.375a7.55 7.55 0 01-2.324-.375c-.788-.255-1.427-.537-1.898-.837-.546-.349-1.04-.668-1.47-.947-.685-.447-1.04-.598-1.408-.598a7.03 7.03 0 00-2.6.471 6.247 6.247 0 00-2.037 1.28 8.05 8.05 0 00-1.417 1.847 11.32 11.32 0 00-.94 2.134 17.968 17.968 0 00-.56 2.286 21.345 21.345 0 00-.29 2.276 30.846 30.846 0 00-.073 2.126c0 1.879.598 3.4 1.776 4.522 1.163 1.107 2.702 1.67 4.574 1.67h17.335c1.872 0 3.41-.562 4.574-1.67 1.179-1.12 1.776-2.642 1.776-4.523 0-.725-.025-1.44-.073-2.126z"/></g><defs><clipPath id="sclip0"><path fill="#fff" d="M0 0h36v36H0z"/></clipPath></defs></svg><svg fill="none" viewBox="0 0 30 30" id="vk" xmlns="http://www.w3.org/2000/svg"><g clip-path="url(#tclip0)"><path d="M24.894 16.285c-.485-.613-.346-.885 0-1.433.006-.006 4.01-5.538 4.422-7.415h.003c.205-.684 0-1.187-.991-1.187h-3.28c-.835 0-1.22.431-1.427.914 0 0-1.67 3.997-4.032 6.588-.763.75-1.115.99-1.531.99-.206 0-.524-.24-.524-.925v-6.38c0-.82-.234-1.187-.925-1.187H11.45c-.524 0-.835.383-.835.739 0 .777 1.181.956 1.304 3.144v4.746c0 1.04-.189 1.231-.607 1.231-1.116 0-3.822-4.014-5.426-8.607-.323-.892-.64-1.252-1.48-1.252H1.124C.189 6.251 0 6.682 0 7.165c0 .853 1.115 5.091 5.185 10.691 2.713 3.823 6.532 5.894 10.008 5.894 2.088 0 2.343-.46 2.343-1.251 0-3.653-.189-3.998.858-3.998.485 0 1.32.24 3.27 2.084 2.228 2.186 2.595 3.165 3.842 3.165h3.28c.935 0 1.409-.46 1.136-1.367-.623-1.91-4.838-5.835-5.028-6.098z" fill="#212121"/></g><defs><clipPath id="tclip0"><path fill="#fff" d="M0 0h30v30H0z"/></clipPath></defs></svg><svg fill="none" viewBox="0 0 31 31" id="youtube" xmlns="http://www.w3.org/2000/svg"><path d="M29.417 8.236a3.64 3.64 0 00-2.561-2.562c-2.274-.622-11.372-.622-11.372-.622s-9.096 0-11.37.598a3.715 3.715 0 00-2.562 2.586c-.598 2.274-.598 6.99-.598 6.99s0 4.74.598 6.99a3.642 3.642 0 002.562 2.562c2.298.622 11.37.622 11.37.622s9.098 0 11.372-.599a3.64 3.64 0 002.562-2.561c.598-2.274.598-6.99.598-6.99s.024-4.74-.599-7.014zM12.588 19.583v-8.714l7.565 4.357-7.565 4.357z" fill="#212121"/></svg></svg>