<svg width="119" height="119" fill="none" xmlns="http://www.w3.org/2000/svg"><path d="M29.962 118.585a3.485 3.485 0 004.47-1.025l55.781-76.932a3.486 3.486 0 00-2.822-5.533H72.609L90.385 5.271A3.486 3.486 0 0087.391 0H45.555a3.486 3.486 0 00-3.383 2.644L28.227 58.658a3.487 3.487 0 003.383 4.328h15.894l-19.16 51.307a3.486 3.486 0 001.618 4.292zM55.794 60.72a3.485 3.485 0 00-3.266-4.706H36.07L48.28 6.973h32.974L63.478 36.797a3.486 3.486 0 002.995 5.271h14.084l-36.7 50.615 11.937-31.964z" fill="#fff"/></svg>