<svg width="117" height="117" fill="none" xmlns="http://www.w3.org/2000/svg"><g clip-path="url(#clip0)" fill="#fff"><path d="M107.066 70.057a4.57 4.57 0 10-8.474 3.426l5.383 13.315-15.987-7.048a4.571 4.571 0 00-3.637-.021c-5.463 2.33-11.316 3.513-17.396 3.513-24.468 0-40.904-19.158-40.904-37.05 0-20.43 18.35-37.051 40.904-37.051 22.555 0 40.905 16.62 40.905 37.05 0 1.594-.149 3.503-.407 5.236a4.57 4.57 0 109.04 1.349A46.12 46.12 0 00117 46.19c0-12.415-5.257-24.064-14.804-32.802C92.763 4.755 80.247 0 66.956 0 53.662 0 41.147 4.755 31.713 13.39c-8.53 7.807-13.633 17.941-14.622 28.869C6.361 49.364 0 60.75 0 73.016c0 7.662 2.414 14.931 7.009 21.188L.334 110.717a4.57 4.57 0 006.08 5.895l19.248-8.485c4.841 1.802 9.96 2.715 15.242 2.715.115 0 .227-.009.339-.018 7.64-.057 15.07-2.067 21.503-5.828 5.763-3.37 10.503-7.998 13.826-13.464a52.584 52.584 0 009.494-2.64l24.52 10.81a4.566 4.566 0 005.025-.901 4.57 4.57 0 001.056-4.995l-9.601-23.749zm-66.161 31.632c-.063 0-.123.007-.185.01-4.667-.024-9.159-.941-13.354-2.731a4.568 4.568 0 00-3.637.022l-10.703 4.718 3.453-8.541a4.57 4.57 0 00-.759-4.678c-4.304-5.05-6.579-11.091-6.579-17.473 0-7.303 3.072-14.223 8.448-19.47 1.674 9.123 6.396 17.85 13.52 24.706 8.864 8.531 20.589 13.474 33.25 14.069-5.944 5.851-14.45 9.368-23.454 9.368z"/><path d="M66.727 50.959a4.57 4.57 0 100-9.14 4.57 4.57 0 000 9.14zm18.281 0a4.57 4.57 0 100-9.14 4.57 4.57 0 000 9.14zm-36.563 0a4.57 4.57 0 100-9.14 4.57 4.57 0 000 9.14z"/></g><defs><clipPath id="clip0"><path fill="#fff" d="M0 0h117v117H0z"/></clipPath></defs></svg>