<svg width="125" height="125" fill="none" xmlns="http://www.w3.org/2000/svg"><path d="M125 74.219c0-3.13-1.245-6.047-3.391-8.198a12.932 12.932 0 003.334-9.943c-.61-6.62-6.573-11.808-13.584-11.808H79.188c1.593-4.838 4.145-13.708 4.145-20.833 0-11.297-9.599-20.833-15.625-20.833-5.406 0-9.276 3.047-9.437 3.172a2.605 2.605 0 00-.98 2.036v17.662L42.286 57.969l-.62.317v-.995a2.605 2.605 0 00-2.604-2.604H13.021C5.839 54.687 0 60.526 0 67.708v41.667c0 7.182 5.839 13.021 13.02 13.021h15.626c5.63 0 10.442-3.594 12.255-8.61 4.333 2.229 10.167 3.401 13.786 3.401h47.808c5.672 0 10.635-3.823 11.802-9.093.599-2.719.25-5.454-.938-7.829a11.67 11.67 0 006.433-10.421c0-1.844-.422-3.61-1.219-5.204A11.671 11.671 0 00125 74.22zm-10.984 6.427a2.615 2.615 0 00-2.177 1.765 2.61 2.61 0 00.687 2.719c1.323 1.245 2.057 2.922 2.057 4.714 0 3.286-2.484 6.046-5.77 6.427a2.616 2.616 0 00-2.177 1.765 2.61 2.61 0 00.687 2.719c1.714 1.614 2.401 3.88 1.886 6.214-.641 2.906-3.464 5.01-6.714 5.01H54.687c-4.229 0-11.322-1.984-13.78-4.448a2.628 2.628 0 00-2.84-.562 2.604 2.604 0 00-1.609 2.406c0 4.307-3.505 7.812-7.812 7.812H13.02c-4.308 0-7.813-3.505-7.813-7.812V67.708c0-4.307 3.505-7.813 7.813-7.813h23.437V62.5c0 .9.469 1.74 1.24 2.219.76.458 1.718.505 2.531.109l5.208-2.604a2.6 2.6 0 001.198-1.235L62.26 27.135c.157-.344.24-.719.24-1.094V9.224c1.083-.6 2.964-1.412 5.208-1.412 2.855 0 10.417 7.094 10.417 15.625 0 9.167-4.99 22.38-5.036 22.51a2.622 2.622 0 00.286 2.407 2.62 2.62 0 002.146 1.125h35.838c4.344 0 8.032 3.11 8.396 7.078.276 2.969-1.151 5.792-3.708 7.37a2.602 2.602 0 00-1.235 2.318 2.616 2.616 0 001.412 2.218c2.203 1.12 3.568 3.329 3.568 5.756 0 3.286-2.485 6.046-5.776 6.427z" fill="#fff"/><path d="M39.063 59.895a2.605 2.605 0 00-2.605 2.605v46.875a2.605 2.605 0 005.209 0V62.5a2.605 2.605 0 00-2.605-2.605z" fill="#fff"/></svg>