<svg width="129" height="129" fill="none" xmlns="http://www.w3.org/2000/svg"><path d="M64.5 0C28.935 0 0 28.935 0 64.5S28.935 129 64.5 129 129 100.065 129 64.5 100.066 0 64.5 0zm0 117.273c-29.099 0-52.773-23.674-52.773-52.773 0-29.1 23.674-52.773 52.773-52.773 29.099 0 52.773 23.674 52.773 52.773 0 29.099-23.674 52.773-52.773 52.773z" fill="#fff"/><path d="M64.5 70.294c-9.084 0-17.625 3.538-24.048 9.961a5.864 5.864 0 108.292 8.293A22.135 22.135 0 0164.5 82.022a22.137 22.137 0 0115.755 6.525 5.864 5.864 0 008.293-8.292c-6.424-6.423-14.964-9.961-24.048-9.961zM45.01 57.519a7.86 7.86 0 002.29-5.528 7.862 7.862 0 00-2.29-5.528 7.879 7.879 0 00-5.528-2.29c-2.06 0-4.074.836-5.528 2.29a7.879 7.879 0 00-2.29 5.528 7.88 7.88 0 002.29 5.528 7.877 7.877 0 005.528 2.29 7.877 7.877 0 005.527-2.29zm44.508-13.346a7.87 7.87 0 00-5.527 2.29 7.862 7.862 0 00-2.291 5.528 7.86 7.86 0 002.29 5.528 7.877 7.877 0 005.528 2.29 7.879 7.879 0 005.528-2.29 7.86 7.86 0 002.29-5.528 7.862 7.862 0 00-2.29-5.528 7.879 7.879 0 00-5.528-2.29z" fill="#fff"/></svg>