<svg width="96" height="96" fill="none" xmlns="http://www.w3.org/2000/svg"><path d="M75.57 2.688v-.01A9.084 9.084 0 0069.134 0H26.856a9.134 9.134 0 00-9.104 9.104v77.782a9.08 9.08 0 002.678 6.436A9.085 9.085 0 0026.856 96h42.288a9.085 9.085 0 006.426-2.678 9.085 9.085 0 002.678-6.426V9.114a9.085 9.085 0 00-2.678-6.426zM48 89.82a2.46 2.46 0 110-4.918 2.46 2.46 0 010 4.918zm23.018-15.44a5.95 5.95 0 01-5.95 5.95H30.922a5.95 5.95 0 01-5.95-5.95V16.412a5.95 5.95 0 015.95-5.95h34.156a5.95 5.95 0 015.95 5.95l-.01 57.967z" fill="#fff"/></svg>